HIERARCHY
ROOT Hips
{
	OFFSET	0.000000	0.000000	0.000000
	CHANNELS 6 Xposition Yposition Zposition Zrotation Xrotation Yrotation
	JOINT LeftUpLeg
	{
		OFFSET	12.830505	-7.049846	-1.643436
		CHANNELS 3 Zrotation Xrotation Yrotation
		JOINT LeftLeg
		{
			OFFSET	0.620834	-39.957502	-1.919341
			CHANNELS 3 Zrotation Xrotation Yrotation
			JOINT LeftFoot
			{
				OFFSET	-0.413890	-44.704761	-3.870325
				CHANNELS 3 Zrotation Xrotation Yrotation
				JOINT LeftFootHeel
				{
					OFFSET	0.164738	-8.918194	-6.555130
					CHANNELS 3 Zrotation Xrotation Yrotation
					End Site
					{
						OFFSET	-0.604053	0.000000	21.044330
					}
				}
			}
		}
	}
	JOINT RightUpLeg
	{
		OFFSET	-12.830505	-7.049846	-1.643436
		CHANNELS 3 Zrotation Xrotation Yrotation
		JOINT RightLeg
		{
			OFFSET	-0.620834	-39.957502	-1.919341
			CHANNELS 3 Zrotation Xrotation Yrotation
			JOINT RightFoot
			{
				OFFSET	0.413890	-44.704761	-3.870325
				CHANNELS 3 Zrotation Xrotation Yrotation
				JOINT RightFootHeel
				{
					OFFSET	-0.164738	-8.918194	-6.555130
					CHANNELS 3 Zrotation Xrotation Yrotation
					End Site
					{
						OFFSET	0.604053	0.000000	21.044330
					}
				}
			}
		}
	}
	JOINT Spine
	{
		OFFSET	0.000000	12.498171	1.820647
		CHANNELS 3 Zrotation Xrotation Yrotation
		JOINT Spine1
		{
			OFFSET	0.000000	7.620000	0.000000
			CHANNELS 3 Zrotation Xrotation Yrotation
			JOINT LeftShoulder
			{
				OFFSET	9.167800	29.136339	-5.551221
				CHANNELS 3 Zrotation Xrotation Yrotation
				JOINT LeftArm
				{
					OFFSET	12.133453	-3.880866	1.461963
					CHANNELS 3 Zrotation Xrotation Yrotation
					JOINT LeftForeArm
					{
						OFFSET	2.507115	-31.664910	-1.069404
						CHANNELS 3 Zrotation Xrotation Yrotation
						JOINT LeftHand
						{
							OFFSET	4.116172	-24.512624	5.009439
							CHANNELS 3 Zrotation Xrotation Yrotation
							End Site
							{
								OFFSET	-0.213136	-10.931856	2.182134
							}
						}
					}
				}
			}
			JOINT RightShoulder
			{
				OFFSET	-9.167800	29.136339	-5.551221
				CHANNELS 3 Zrotation Xrotation Yrotation
				JOINT RightArm
				{
					OFFSET	-12.133453	-3.880866	1.461963
					CHANNELS 3 Zrotation Xrotation Yrotation
					JOINT RightForeArm
					{
						OFFSET	-2.507115	-31.664910	-1.069404
						CHANNELS 3 Zrotation Xrotation Yrotation
						JOINT RightHand
						{
							OFFSET	-4.116172	-24.512624	5.009439
							CHANNELS 3 Zrotation Xrotation Yrotation
							End Site
							{
								OFFSET	0.213136	-10.931856	2.182134
							}
						}
					}
				}
			}
			JOINT Neck
			{
				OFFSET	0.000000	32.926275	-3.635654
				CHANNELS 3 Zrotation Xrotation Yrotation
				JOINT Head
				{
					OFFSET	0.000000	12.481178	4.646143
					CHANNELS 3 Zrotation Xrotation Yrotation
					End Site
					{
						OFFSET	0.000000	17.715205	-2.222063
					}
				}
			}
		}
	}
}
MOTION
Frames:     14
Frame Time: 0.016667
5.952280	99.878214	1.818809	-5.447937	4.826349	48.413719	8.056953	-26.654167	10.864661	7.707102	33.400768	-5.831931	-7.962690	-11.623130	2.372776	0.	0.	0.	-18.406569	-19.949032	-16.393057	0.877698	24.690495	-6.085713	12.577173	-0.952307	-4.428778	0.	0.	0.	0.000000	-0.000001	-0.000001	-10.667196	12.816134	10.448149	18.296621	12.018784	-9.669287	-12.916484	-51.367233	-20.329197	-114.013260	-21.554857	-77.026283	13.528613	12.948956	-9.823375	-4.020664	-0.721689	0.776316	-66.330307	20.016886	-50.889530	103.751595	-56.955517	83.684975	5.229481	-6.692740	10.349380	-1.996459	11.758956	-27.036324	28.383257	-10.522838	-15.876047	
5.631611	100.118509	1.597901	-4.920805	5.156888	48.457573	7.181653	-26.358641	11.065881	7.733568	32.493019	-5.520618	-7.945884	-9.740814	1.685163	0.	0.	0.	-18.947550	-20.132872	-16.912758	0.378040	24.779682	-5.438468	12.706697	-0.300690	-4.573442	0.	0.	0.	0.000000	0.000000	0.000004	-10.553246	13.112753	12.528239	17.540892	10.672941	-8.844747	-13.545355	-49.811592	-19.424501	-114.380371	-20.732161	-76.037971	13.211379	12.403022	-7.723232	-5.044051	-3.040265	4.310853	-78.205254	16.975471	-40.269905	98.178375	-57.262047	77.503815	3.298024	-5.396253	10.575559	-3.402608	11.224825	-26.857971	26.709784	-10.268924	-17.672894	
5.309371	100.299874	1.274910	-4.241997	5.381362	48.878078	6.170676	-26.185457	10.952995	8.028634	31.937349	-5.947795	-8.068385	-7.874331	1.326500	0.	0.	0.	-19.715542	-19.903990	-17.538364	0.227195	24.835356	-5.166304	12.619212	-0.047006	-4.847915	0.	0.	0.	-0.000000	-0.000000	-0.000001	-10.994129	14.546073	16.363831	17.081720	7.520397	-8.523697	-14.395896	-47.648350	-20.446465	-114.799919	-20.174589	-75.651627	13.141630	12.039092	-6.584416	-5.281411	-6.114451	5.870487	-86.676956	17.131739	-32.075096	99.371559	-57.090679	77.402512	4.792829	-4.541703	10.858002	-3.518772	9.153113	-28.902502	25.738102	-10.195256	-19.590185	
5.309371	100.299874	1.274910	-4.241997	5.381362	48.878078	6.170676	-26.185457	10.952995	8.028634	31.937349	-5.947795	-8.068385	-7.874331	1.326500	0.	0.	0.	-19.715542	-19.903990	-17.538364	0.227195	24.835356	-5.166304	12.619212	-0.047006	-4.847915	0.	0.	0.	-0.000000	-0.000000	-0.000001	-10.994129	14.546073	16.363831	17.081720	7.520397	-8.523697	-14.395896	-47.648350	-20.446465	-114.799919	-20.174589	-75.651627	13.141630	12.039092	-6.584416	-5.281411	-6.114451	5.870487	-86.676956	17.131739	-32.075096	99.371559	-57.090679	77.402512	4.792829	-4.541703	10.858002	-3.518772	9.153113	-28.902502	25.738102	-10.195256	-19.590185	
4.418163	100.409567	1.105943	-3.393522	5.531509	51.044163	5.074756	-25.947208	9.500731	7.762992	30.980042	-6.209814	-8.607863	-5.176694	-0.126341	0.	0.	0.	-20.816870	-19.129496	-20.338318	-0.178014	25.621258	-5.109980	12.052301	-0.846941	-4.419334	0.	0.	0.	-0.000000	-0.000001	-0.000004	-11.731641	13.935742	20.856815	17.778683	7.471198	-10.521466	-15.407641	-47.552795	-22.471437	-114.441544	-19.529346	-75.446785	13.795551	11.432302	-7.484857	-5.539258	-5.743194	6.183450	-87.684753	17.205391	-30.562571	105.553398	-54.704746	84.854874	7.523600	-5.069251	10.300601	-1.225689	7.858517	-32.061848	25.696192	-10.770700	-23.190271	
3.910016	100.488254	1.574727	-3.490699	5.659879	53.726891	5.046720	-26.288357	8.870173	7.687458	30.203955	-7.052306	-9.251647	-3.739550	-2.290087	0.	0.	0.	-20.779272	-18.037605	-23.005472	-0.868311	25.556211	-5.137978	11.741544	-2.020744	-4.150054	0.	0.	0.	0.000000	0.000000	0.000002	-11.805201	14.846226	21.549765	18.065544	6.471847	-10.869689	-16.975386	-48.027870	-24.384184	-113.699234	-19.300941	-75.191551	14.007481	11.038136	-8.779628	-5.679545	-5.958790	5.535646	-81.972069	16.810558	-35.334698	-69.523781	-127.183098	-89.711571	9.989641	-6.281004	9.079490	-0.374195	6.796871	-33.131443	27.634871	-11.061440	-22.986265	
3.754010	100.441164	2.185930	-4.018166	5.254060	56.933598	5.641531	-26.942961	8.536201	8.062099	29.800776	-8.726006	-9.926487	-2.995780	-4.636930	0.	0.	0.	-20.029501	-16.416416	-25.102604	-1.076504	25.186737	-5.420091	11.560082	-3.376259	-4.601955	0.	0.	0.	0.000000	0.000000	0.000003	-10.587255	15.199189	20.664228	17.425968	6.427501	-10.919619	-17.021318	-48.061974	-25.175428	-113.174622	-19.266737	-74.948387	13.553825	11.149625	-9.334523	-5.804723	-6.255158	4.463033	-73.197968	16.338802	-39.511032	-61.424137	-127.896629	-81.016182	11.013622	-5.274512	8.318641	-0.471471	6.866831	-32.622578	29.115454	-10.700212	-20.486456	
3.677200	99.783414	2.119267	-4.913189	3.569129	61.786293	6.227470	-28.675146	7.001888	9.668745	30.530300	-11.451192	-10.695197	-3.023799	-6.896040	0.	0.	0.	-19.370108	-14.717492	-29.745430	-1.112014	26.595062	-2.479399	11.439054	-5.515260	-7.039164	0.	0.	0.	0.000000	-0.000000	-0.000001	-6.998218	15.906143	18.969862	16.383213	6.355004	-11.135086	-15.704442	-47.127899	-23.552011	-113.257683	-19.296204	-74.351509	12.158838	11.597807	-8.601071	-6.243780	-6.360889	1.833091	-58.863979	16.958080	-45.671185	-63.667049	-134.276657	-70.095345	1.855835	-11.989668	-2.133560	-1.972069	7.335132	-31.613531	27.340458	-10.862643	-19.285480	
3.601587	99.457329	2.124648	-5.297459	2.231642	64.777733	6.186070	-30.011192	5.418775	10.819841	31.463844	-12.874929	-10.684737	-3.455389	-7.561327	0.	0.	0.	-18.165913	-13.662433	-23.947704	2.660419	27.686174	-9.801347	11.498628	-6.954031	-8.674197	0.	0.	0.	0.000000	-0.000001	-0.000003	-4.249412	17.681379	18.122244	15.344940	5.002307	-10.351465	-15.224466	-45.785828	-22.249222	-113.684441	-19.309427	-73.890701	10.919528	11.807370	-7.866539	-7.180885	-6.242377	-0.568555	-48.830940	16.926004	-50.961311	-45.927998	-134.264465	-69.041107	7.583917	-1.934244	7.120336	-3.547261	6.354710	-32.114334	26.099100	-10.816561	-19.579823	
3.514604	99.332249	2.024181	-5.450693	1.655555	66.127136	6.217078	-30.648903	5.044555	11.346366	31.917696	-13.693082	-10.528346	-3.807065	-7.939076	0.	0.	0.	-18.204205	-13.886003	-21.939219	4.533304	29.012321	-12.732228	11.555392	-7.638078	-9.311024	0.	0.	0.	0.000000	0.000000	0.000001	-2.966532	18.223902	17.724037	15.062263	4.573636	-9.803126	-15.345608	-44.908546	-21.839828	-113.870392	-19.400236	-73.727028	10.242607	11.839610	-7.389531	-7.532894	-5.344104	-1.583616	-43.661491	16.438345	-53.720833	-46.735596	-135.729248	-70.168549	6.371291	-2.548335	6.283832	-4.044498	6.044146	-32.604313	25.244421	-10.858698	-19.866106	
3.393305	99.005758	2.054311	-5.751994	0.752788	68.408798	6.686317	-31.717356	6.048742	12.622598	32.411484	-16.272327	-10.262114	-4.855127	-8.938529	0.	0.	0.	-18.002596	-13.527180	-22.726122	5.632379	30.917364	-12.583899	11.557886	-9.004299	-10.621140	0.	0.	0.	0.000000	-0.000000	0.000003	-1.094584	18.925035	16.235748	15.073892	4.314148	-7.757051	-15.819017	-42.946793	-21.150389	-114.291298	-19.830139	-73.735596	8.583143	11.877982	-6.588649	-7.361576	-2.960784	-2.244438	-34.354240	15.438578	-58.177197	-48.864658	-138.441071	-72.956970	4.631702	-3.243421	3.848117	-4.514303	5.542978	-32.791252	23.871208	-10.873505	-20.038399	
3.481125	98.494219	2.345673	-6.083905	-0.078729	70.562469	7.425089	-32.619678	8.008132	14.293927	32.694328	-19.575472	-10.282055	-6.773132	-10.285754	0.	0.	0.	-18.317358	-14.637186	-21.359314	8.565700	34.849010	-14.531436	11.435841	-10.993534	-12.589663	0.	0.	0.	0.000000	-0.000000	0.000001	0.513627	20.486923	13.912742	14.557178	3.663739	-4.291194	-15.284293	-39.029274	-18.658741	-115.100357	-20.488451	-74.311531	5.503072	12.322906	-6.158996	-6.326932	0.150871	-1.320287	-22.912792	13.887679	-58.495361	-52.119717	-138.903244	-73.108200	2.245476	-2.528853	1.798009	-4.661869	3.815582	-31.319567	22.882868	-10.643651	-21.228054	
3.287716	98.063490	2.824650	-6.083905	-0.078729	70.562469	8.108125	-33.164963	9.182252	14.874892	33.511639	-21.164146	-10.556371	-7.734400	-10.250393	0.	0.	0.	-18.752338	-16.188587	-20.397413	9.911298	37.979122	-15.524691	11.371244	-12.068345	-13.084793	0.	0.	0.	0.000000	-0.000000	0.000001	0.533583	21.554955	13.050117	14.088150	3.158209	-1.653440	-14.520309	-35.647717	-16.186115	-115.844780	-20.667936	-74.507744	3.628359	12.829176	-6.104345	-5.421350	1.359389	-0.335239	-17.194332	13.015336	-54.643967	-46.803162	-137.927536	-61.332920	2.821490	4.570935	-3.619819	-4.590797	2.826277	-30.119919	23.577852	-11.369728	-20.272089	
3.326938	97.346576	3.360970	-6.420937	0.099911	71.306282	8.158701	-34.912823	8.187680	15.152442	35.883141	-22.149763	-10.661046	-8.935538	-9.682396	0.	0.	0.	-19.647137	-17.788664	-21.293982	10.970842	41.262306	-16.643147	11.387325	-13.031652	-12.517199	0.	0.	0.	0.000000	-0.000000	-0.000000	0.895724	22.314806	11.043495	13.959628	2.600718	1.128305	-13.694510	-31.752457	-13.389689	-116.976486	-20.758144	-74.694290	1.658041	13.066265	-5.668029	-4.766281	2.335053	0.754261	-12.488702	11.841969	-49.698307	-45.273155	-135.188766	-55.356525	4.076504	7.977259	-7.371483	-4.706243	1.668356	-28.954145	24.490002	-11.832832	-19.791529	
